<svg width="23" height="23" viewBox="0 0 23 23" fill="none" xmlns="http://www.w3.org/2000/svg">
<g clip-path="url(#clip0_32_47)">
<path d="M19.4062 14.375H17.9688C17.7781 14.375 17.5953 14.4507 17.4605 14.5855C17.3257 14.7203 17.25 14.9031 17.25 15.0938V20.125H2.875V5.75H9.34375C9.53437 5.75 9.71719 5.67427 9.85198 5.53948C9.98677 5.40469 10.0625 5.22187 10.0625 5.03125V3.59375C10.0625 3.40313 9.98677 3.22031 9.85198 3.08552C9.71719 2.95073 9.53437 2.875 9.34375 2.875H2.15625C1.58438 2.875 1.03593 3.10218 0.631551 3.50655C0.227176 3.91093 0 4.45938 0 5.03125L0 20.8438C0 21.4156 0.227176 21.9641 0.631551 22.3685C1.03593 22.7728 1.58438 23 2.15625 23H17.9688C18.5406 23 19.0891 22.7728 19.4935 22.3685C19.8978 21.9641 20.125 21.4156 20.125 20.8438V15.0938C20.125 14.9031 20.0493 14.7203 19.9145 14.5855C19.7797 14.4507 19.5969 14.375 19.4062 14.375ZM21.9219 0H16.1719C15.2119 0 14.7321 1.16393 15.4082 1.8418L17.0133 3.44686L6.06445 14.3916C5.96394 14.4918 5.88419 14.6108 5.82978 14.7418C5.77536 14.8729 5.74735 15.0134 5.74735 15.1553C5.74735 15.2972 5.77536 15.4377 5.82978 15.5687C5.88419 15.6998 5.96394 15.8188 6.06445 15.919L7.08283 16.9355C7.18299 17.0361 7.30201 17.1158 7.43306 17.1702C7.56411 17.2246 7.70461 17.2526 7.8465 17.2526C7.9884 17.2526 8.1289 17.2246 8.25995 17.1702C8.391 17.1158 8.51001 17.0361 8.61018 16.9355L19.5536 5.98898L21.1582 7.5918C21.832 8.26562 23 7.79395 23 6.82812V1.07812C23 0.792188 22.8864 0.517963 22.6842 0.315775C22.482 0.113588 22.2078 0 21.9219 0V0Z" fill="#7796E7"/>
</g>
<defs>
<clipPath id="clip0_32_47">
<rect width="23" height="23" fill="white"/>
</clipPath>
</defs>
</svg>
