<svg width="41" height="41" viewBox="0 0 41 41" fill="none" xmlns="http://www.w3.org/2000/svg">
<rect width="41" height="41" rx="10" fill="#D8DDE9"/>
<g clip-path="url(#clip0_38_35)">
<path d="M13.9688 24.6562H11.5938C11.4363 24.6562 11.2853 24.7188 11.1739 24.8302C11.0626 24.9415 11 25.0925 11 25.25V27.625C11 27.7825 11.0626 27.9335 11.1739 28.0448C11.2853 28.1562 11.4363 28.2188 11.5938 28.2188H13.9688C14.1262 28.2188 14.2772 28.1562 14.3886 28.0448C14.4999 27.9335 14.5625 27.7825 14.5625 27.625V25.25C14.5625 25.0925 14.4999 24.9415 14.3886 24.8302C14.2772 24.7188 14.1262 24.6562 13.9688 24.6562ZM13.9688 12.7812H11.5938C11.4363 12.7812 11.2853 12.8438 11.1739 12.9552C11.0626 13.0665 11 13.2175 11 13.375V15.75C11 15.9075 11.0626 16.0585 11.1739 16.1698C11.2853 16.2812 11.4363 16.3438 11.5938 16.3438H13.9688C14.1262 16.3438 14.2772 16.2812 14.3886 16.1698C14.4999 16.0585 14.5625 15.9075 14.5625 15.75V13.375C14.5625 13.2175 14.4999 13.0665 14.3886 12.9552C14.2772 12.8438 14.1262 12.7812 13.9688 12.7812ZM13.9688 18.7188H11.5938C11.4363 18.7188 11.2853 18.7813 11.1739 18.8927C11.0626 19.004 11 19.155 11 19.3125V21.6875C11 21.845 11.0626 21.996 11.1739 22.1073C11.2853 22.2187 11.4363 22.2812 11.5938 22.2812H13.9688C14.1262 22.2812 14.2772 22.2187 14.3886 22.1073C14.4999 21.996 14.5625 21.845 14.5625 21.6875V19.3125C14.5625 19.155 14.4999 19.004 14.3886 18.8927C14.2772 18.7813 14.1262 18.7188 13.9688 18.7188ZM29.4062 25.25H17.5312C17.3738 25.25 17.2228 25.3126 17.1114 25.4239C17.0001 25.5353 16.9375 25.6863 16.9375 25.8438V27.0312C16.9375 27.1887 17.0001 27.3397 17.1114 27.4511C17.2228 27.5624 17.3738 27.625 17.5312 27.625H29.4062C29.5637 27.625 29.7147 27.5624 29.8261 27.4511C29.9374 27.3397 30 27.1887 30 27.0312V25.8438C30 25.6863 29.9374 25.5353 29.8261 25.4239C29.7147 25.3126 29.5637 25.25 29.4062 25.25ZM29.4062 13.375H17.5312C17.3738 13.375 17.2228 13.4376 17.1114 13.5489C17.0001 13.6603 16.9375 13.8113 16.9375 13.9688V15.1562C16.9375 15.3137 17.0001 15.4647 17.1114 15.5761C17.2228 15.6874 17.3738 15.75 17.5312 15.75H29.4062C29.5637 15.75 29.7147 15.6874 29.8261 15.5761C29.9374 15.4647 30 15.3137 30 15.1562V13.9688C30 13.8113 29.9374 13.6603 29.8261 13.5489C29.7147 13.4376 29.5637 13.375 29.4062 13.375ZM29.4062 19.3125H17.5312C17.3738 19.3125 17.2228 19.3751 17.1114 19.4864C17.0001 19.5978 16.9375 19.7488 16.9375 19.9062V21.0938C16.9375 21.2512 17.0001 21.4022 17.1114 21.5136C17.2228 21.6249 17.3738 21.6875 17.5312 21.6875H29.4062C29.5637 21.6875 29.7147 21.6249 29.8261 21.5136C29.9374 21.4022 30 21.2512 30 21.0938V19.9062C30 19.7488 29.9374 19.5978 29.8261 19.4864C29.7147 19.3751 29.5637 19.3125 29.4062 19.3125Z" fill="#6A7797"/>
</g>
<defs>
<clipPath id="clip0_38_35">
<rect width="19" height="19" fill="white" transform="translate(11 11)"/>
</clipPath>
</defs>
</svg>
