<svg width="15" height="16" viewBox="0 0 15 16" fill="none" xmlns="http://www.w3.org/2000/svg">
<path d="M14.5582 13.4393C15.1441 14.0252 15.1441 14.9743 14.5582 15.5602C14.2676 15.8531 13.8833 15.9984 13.4989 15.9984C13.1146 15.9984 12.7312 15.852 12.4387 15.559L7.49941 10.6223L2.56058 15.5578C2.26764 15.8531 1.88376 15.9984 1.49988 15.9984C1.11601 15.9984 0.732599 15.8531 0.439419 15.5578C-0.146473 14.972 -0.146473 14.0228 0.439419 13.4369L5.37966 8.49668L0.439419 3.55879C-0.146473 2.9729 -0.146473 2.02375 0.439419 1.43786C1.02531 0.851971 1.97446 0.851971 2.56035 1.43786L7.49941 6.38044L12.4397 1.44021C13.0255 0.854314 13.9747 0.854314 14.5606 1.44021C15.1465 2.0261 15.1465 2.97524 14.5606 3.56113L9.62034 8.50137L14.5582 13.4393Z" fill="#E31D1D"/>
</svg>
