<svg width="20" height="23" viewBox="0 0 20 23" fill="none" xmlns="http://www.w3.org/2000/svg">
<g clip-path="url(#clip0_32_45)">
<path d="M11.9643 18.6875H13.0357C13.1778 18.6875 13.3141 18.6307 13.4145 18.5296C13.515 18.4285 13.5714 18.2914 13.5714 18.1484V8.44531C13.5714 8.30235 13.515 8.16523 13.4145 8.06414C13.3141 7.96304 13.1778 7.90625 13.0357 7.90625H11.9643C11.8222 7.90625 11.6859 7.96304 11.5855 8.06414C11.485 8.16523 11.4286 8.30235 11.4286 8.44531V18.1484C11.4286 18.2914 11.485 18.4285 11.5855 18.5296C11.6859 18.6307 11.8222 18.6875 11.9643 18.6875ZM19.2857 3.59375H15.6067L14.0888 1.04668C13.8984 0.727292 13.6289 0.463006 13.3067 0.279574C12.9845 0.0961429 12.6206 -0.000177145 12.2504 2.44575e-07H7.74955C7.37953 -2.19564e-05 7.0158 0.0963718 6.69379 0.279796C6.37178 0.46322 6.10246 0.727423 5.91205 1.04668L4.3933 3.59375H0.714286C0.524845 3.59375 0.343164 3.66948 0.209209 3.80427C0.0752549 3.93906 0 4.12188 0 4.3125L0 5.03125C0 5.22188 0.0752549 5.40469 0.209209 5.53948C0.343164 5.67428 0.524845 5.75 0.714286 5.75H1.42857V20.8438C1.42857 21.4156 1.65434 21.9641 2.0562 22.3685C2.45806 22.7728 3.00311 23 3.57143 23H16.4286C16.9969 23 17.5419 22.7728 17.9438 22.3685C18.3457 21.9641 18.5714 21.4156 18.5714 20.8438V5.75H19.2857C19.4752 5.75 19.6568 5.67428 19.7908 5.53948C19.9247 5.40469 20 5.22188 20 5.03125V4.3125C20 4.12188 19.9247 3.93906 19.7908 3.80427C19.6568 3.66948 19.4752 3.59375 19.2857 3.59375ZM7.67143 2.28697C7.6953 2.24699 7.72908 2.21392 7.76946 2.19101C7.80983 2.1681 7.85543 2.15612 7.90179 2.15625H12.0982C12.1445 2.1562 12.19 2.16821 12.2303 2.19112C12.2706 2.21403 12.3043 2.24705 12.3281 2.28697L13.1076 3.59375H6.89241L7.67143 2.28697ZM16.4286 20.8438H3.57143V5.75H16.4286V20.8438ZM6.96429 18.6875H8.03571C8.17779 18.6875 8.31406 18.6307 8.41452 18.5296C8.51499 18.4285 8.57143 18.2914 8.57143 18.1484V8.44531C8.57143 8.30235 8.51499 8.16523 8.41452 8.06414C8.31406 7.96304 8.17779 7.90625 8.03571 7.90625H6.96429C6.82221 7.90625 6.68595 7.96304 6.58548 8.06414C6.48501 8.16523 6.42857 8.30235 6.42857 8.44531V18.1484C6.42857 18.2914 6.48501 18.4285 6.58548 18.5296C6.68595 18.6307 6.82221 18.6875 6.96429 18.6875Z" fill="#EE7A7A"/>
</g>
<defs>
<clipPath id="clip0_32_45">
<rect width="20" height="23" fill="white"/>
</clipPath>
</defs>
</svg>
