<svg width="27" height="24" viewBox="0 0 27 24" fill="none" xmlns="http://www.w3.org/2000/svg">
<path d="M18.8719 3.9L23.1 8.12812C23.2781 8.30624 23.2781 8.59687 23.1 8.77499L12.8625 19.0125L8.5125 19.4953C7.93125 19.5609 7.43906 19.0687 7.50469 18.4875L7.9875 14.1375L18.225 3.9C18.4031 3.72187 18.6938 3.72187 18.8719 3.9ZM26.4656 2.82656L24.1781 0.539059C23.4656 -0.173441 22.3078 -0.173441 21.5906 0.539059L19.9313 2.19843C19.7531 2.37656 19.7531 2.66718 19.9313 2.84531L24.1594 7.07343C24.3375 7.25156 24.6281 7.25156 24.8063 7.07343L26.4656 5.41406C27.1781 4.69687 27.1781 3.53906 26.4656 2.82656ZM18 16.2281V21H3V6H13.7719C13.9219 6 14.0625 5.93906 14.1703 5.83593L16.0453 3.96093C16.4016 3.60468 16.1484 3 15.6469 3H2.25C1.00781 3 0 4.00781 0 5.25V21.75C0 22.9922 1.00781 24 2.25 24H18.75C19.9922 24 21 22.9922 21 21.75V14.3531C21 13.8516 20.3953 13.6031 20.0391 13.9547L18.1641 15.8297C18.0609 15.9375 18 16.0781 18 16.2281Z" fill="#5DBA6C"/>
</svg>
