<svg width="21" height="21" viewBox="0 0 21 21" fill="none" xmlns="http://www.w3.org/2000/svg">
<path d="M20.3438 15.75H6.5625V15.0938C6.5625 14.7328 6.26719 14.4375 5.90625 14.4375H4.59375C4.23281 14.4375 3.9375 14.7328 3.9375 15.0938V15.75H0.65625C0.295312 15.75 0 16.0453 0 16.4062V17.7188C0 18.0797 0.295312 18.375 0.65625 18.375H3.9375V19.0312C3.9375 19.3922 4.23281 19.6875 4.59375 19.6875H5.90625C6.26719 19.6875 6.5625 19.3922 6.5625 19.0312V18.375H20.3438C20.7047 18.375 21 18.0797 21 17.7188V16.4062C21 16.0453 20.7047 15.75 20.3438 15.75ZM20.3438 9.1875H17.0625V8.53125C17.0625 8.17031 16.7672 7.875 16.4062 7.875H15.0938C14.7328 7.875 14.4375 8.17031 14.4375 8.53125V9.1875H0.65625C0.295312 9.1875 0 9.48281 0 9.84375V11.1562C0 11.5172 0.295312 11.8125 0.65625 11.8125H14.4375V12.4688C14.4375 12.8297 14.7328 13.125 15.0938 13.125H16.4062C16.7672 13.125 17.0625 12.8297 17.0625 12.4688V11.8125H20.3438C20.7047 11.8125 21 11.5172 21 11.1562V9.84375C21 9.48281 20.7047 9.1875 20.3438 9.1875ZM20.3438 2.625H11.8125V1.96875C11.8125 1.60781 11.5172 1.3125 11.1562 1.3125H9.84375C9.48281 1.3125 9.1875 1.60781 9.1875 1.96875V2.625H0.65625C0.295312 2.625 0 2.92031 0 3.28125V4.59375C0 4.95469 0.295312 5.25 0.65625 5.25H9.1875V5.90625C9.1875 6.26719 9.48281 6.5625 9.84375 6.5625H11.1562C11.5172 6.5625 11.8125 6.26719 11.8125 5.90625V5.25H20.3438C20.7047 5.25 21 4.95469 21 4.59375V3.28125C21 2.92031 20.7047 2.625 20.3438 2.625Z" fill="white"/>
</svg>
