<svg width="41" height="41" viewBox="0 0 41 41" fill="none" xmlns="http://www.w3.org/2000/svg">
<rect width="41" height="41" rx="10" fill="#D8DDE9"/>
<g clip-path="url(#clip0_38_36)">
<path d="M29.7251 15.0156L23.6407 12C23.0126 12.8687 21.6219 13.475 20.0001 13.475C18.3782 13.475 16.9876 12.8687 16.3594 12L10.2751 15.0156C10.0282 15.1406 9.92818 15.4406 10.0501 15.6875L11.8376 19.2656C11.9626 19.5125 12.2626 19.6125 12.5094 19.4906L14.2782 18.625C14.6094 18.4625 14.9969 18.7031 14.9969 19.075V27C14.9969 27.5531 15.4438 28 15.9969 28H23.9969C24.5501 28 24.9969 27.5531 24.9969 27V19.0719C24.9969 18.7031 25.3844 18.4594 25.7157 18.6219L27.4844 19.4875C27.7313 19.6125 28.0313 19.5125 28.1563 19.2625L29.9469 15.6875C30.0719 15.4406 29.9719 15.1375 29.7251 15.0156Z" fill="#6A7797"/>
</g>
<defs>
<clipPath id="clip0_38_36">
<rect width="20" height="16" fill="white" transform="translate(10 12)"/>
</clipPath>
</defs>
</svg>
