<svg width="41" height="41" viewBox="0 0 41 41" fill="none" xmlns="http://www.w3.org/2000/svg">
<rect width="41" height="41" rx="10" fill="#D8DDE9"/>
<g clip-path="url(#clip0_38_34)">
<path d="M20.2218 16.2122L13.5 21.5507V27.3125C13.5 27.4616 13.5615 27.6047 13.6709 27.7102C13.7802 27.8157 13.9286 27.875 14.0833 27.875L18.1688 27.8648C18.3231 27.864 18.4707 27.8044 18.5794 27.699C18.6882 27.5936 18.7493 27.451 18.7493 27.3023V23.9375C18.7493 23.7883 18.8107 23.6452 18.9201 23.5397C19.0295 23.4342 19.1779 23.375 19.3326 23.375H21.6659C21.8206 23.375 21.969 23.4342 22.0784 23.5397C22.1878 23.6452 22.2493 23.7883 22.2493 23.9375V27.2998C22.249 27.3738 22.2639 27.4471 22.2931 27.5156C22.3224 27.584 22.3653 27.6463 22.4195 27.6987C22.4737 27.7511 22.5381 27.7927 22.6089 27.8211C22.6798 27.8494 22.7558 27.8641 22.8326 27.8641L26.9167 27.875C27.0714 27.875 27.2197 27.8157 27.3291 27.7102C27.4385 27.6047 27.5 27.4616 27.5 27.3125V21.5468L20.7796 16.2122C20.7006 16.1508 20.6022 16.1173 20.5007 16.1173C20.3992 16.1173 20.3008 16.1508 20.2218 16.2122ZM30.8396 19.8407L27.7917 17.4181V12.5486C27.7917 12.4367 27.7456 12.3294 27.6635 12.2503C27.5815 12.1712 27.4702 12.1267 27.3542 12.1267H25.3125C25.1965 12.1267 25.0852 12.1712 25.0031 12.2503C24.9211 12.3294 24.875 12.4367 24.875 12.5486V15.1013L21.6109 12.5117C21.2976 12.2631 20.9046 12.1272 20.4989 12.1272C20.0932 12.1272 19.7002 12.2631 19.3869 12.5117L10.1582 19.8407C10.1139 19.876 10.0773 19.9194 10.0504 19.9684C10.0235 20.0173 10.0068 20.0709 10.0014 20.1261C9.99598 20.1813 10.0019 20.2369 10.0188 20.2899C10.0357 20.3429 10.0633 20.3921 10.0999 20.4348L11.0296 21.5247C11.0661 21.5675 11.1111 21.603 11.1619 21.6291C11.2126 21.6552 11.2682 21.6713 11.3255 21.6766C11.3828 21.682 11.4406 21.6763 11.4956 21.6601C11.5506 21.6439 11.6017 21.6173 11.6461 21.582L20.2218 14.7708C20.3008 14.7094 20.3992 14.6759 20.5007 14.6759C20.6022 14.6759 20.7006 14.7094 20.7796 14.7708L29.3557 21.582C29.4 21.6173 29.4511 21.6439 29.506 21.6602C29.5609 21.6765 29.6187 21.6822 29.6759 21.677C29.7331 21.6717 29.7887 21.6557 29.8395 21.6297C29.8903 21.6038 29.9353 21.5685 29.9719 21.5257L30.9016 20.4359C30.9382 20.3929 30.9656 20.3434 30.9823 20.2902C30.999 20.237 31.0046 20.1812 30.9989 20.1259C30.9931 20.0706 30.9761 20.0169 30.9487 19.968C30.9214 19.919 30.8843 19.8758 30.8396 19.8407Z" fill="#6A7797"/>
</g>
<defs>
<clipPath id="clip0_38_34">
<rect width="21" height="18" fill="white" transform="translate(10 11)"/>
</clipPath>
</defs>
</svg>
