<svg width="20" height="20" viewBox="0 0 20 20" fill="none" xmlns="http://www.w3.org/2000/svg">
<path d="M4 8V6C4 4.4087 4.63214 2.88258 5.75736 1.75736C6.88258 0.632141 8.4087 0 10 0C11.5913 0 13.1174 0.632141 14.2426 1.75736C15.3679 2.88258 16 4.4087 16 6H13V8H17C17.5304 8 18.0391 8.21071 18.4142 8.58579C18.7893 8.96086 19 9.46957 19 10V18C19 18.5304 18.7893 19.0391 18.4142 19.4142C18.0391 19.7893 17.5304 20 17 20H3C2.46957 20 1.96086 19.7893 1.58579 19.4142C1.21071 19.0391 1 18.5304 1 18V10C1 8.9 1.9 8 3 8H4ZM9 14.73V17H11V14.73C11.3813 14.5099 11.6793 14.1701 11.8478 13.7633C12.0162 13.3566 12.0458 12.9056 11.9319 12.4803C11.8179 12.055 11.5668 11.6793 11.2175 11.4112C10.8682 11.1432 10.4403 10.9979 10 10.9979C9.55973 10.9979 9.13177 11.1432 8.78248 11.4112C8.43319 11.6793 8.1821 12.055 8.06815 12.4803C7.9542 12.9056 7.98376 13.3566 8.15224 13.7633C8.32072 14.1701 8.61872 14.5099 9 14.73V14.73ZM7 6V8H13V6C13 5.20435 12.6839 4.44129 12.1213 3.87868C11.5587 3.31607 10.7956 3 10 3C9.20435 3 8.44129 3.31607 7.87868 3.87868C7.31607 4.44129 7 5.20435 7 6V6Z" fill="#3D63C8"/>
</svg>
