<svg width="41" height="41" viewBox="0 0 41 41" fill="none" xmlns="http://www.w3.org/2000/svg">
<rect width="41" height="41" rx="10" fill="#D8DDE9"/>
<path d="M32 17.8594V18.5156C32 19.0593 31.5709 19.5 31.0417 19.5H30.7222L29.6795 26.9972C29.5446 27.9671 28.736 28.6875 27.7821 28.6875H13.2179C12.264 28.6875 11.4554 27.9671 11.3204 26.9972L10.2778 19.5H9.95833C9.42905 19.5 9 19.0593 9 18.5156V17.8594C9 17.3157 9.42905 16.875 9.95833 16.875H12.6473L16.9111 10.853C17.3262 10.2668 18.1253 10.1372 18.696 10.5636C19.2667 10.9899 19.3929 11.8108 18.9778 12.397L15.8072 16.875H25.1928L22.0222 12.3969C21.6071 11.8108 21.7333 10.9899 22.304 10.5635C22.8747 10.1372 23.6739 10.2668 24.089 10.853L28.3527 16.875H31.0417C31.5709 16.875 32 17.3157 32 17.8594ZM21.4583 25.0781V20.4844C21.4583 19.9407 21.0293 19.5 20.5 19.5C19.9707 19.5 19.5417 19.9407 19.5417 20.4844V25.0781C19.5417 25.6218 19.9707 26.0625 20.5 26.0625C21.0293 26.0625 21.4583 25.6218 21.4583 25.0781ZM25.9306 25.0781V20.4844C25.9306 19.9407 25.5015 19.5 24.9722 19.5C24.4429 19.5 24.0139 19.9407 24.0139 20.4844V25.0781C24.0139 25.6218 24.4429 26.0625 24.9722 26.0625C25.5015 26.0625 25.9306 25.6218 25.9306 25.0781ZM16.9861 25.0781V20.4844C16.9861 19.9407 16.5571 19.5 16.0278 19.5C15.4985 19.5 15.0694 19.9407 15.0694 20.4844V25.0781C15.0694 25.6218 15.4985 26.0625 16.0278 26.0625C16.5571 26.0625 16.9861 25.6218 16.9861 25.0781Z" fill="#6A7797"/>
</svg>
