<svg width="41" height="41" viewBox="0 0 41 41" fill="none" xmlns="http://www.w3.org/2000/svg">
<rect width="41" height="41" rx="10" fill="#D8DDE9"/>
<path d="M23.75 20.2344V21.1641C23.75 21.3832 23.5672 21.5625 23.3438 21.5625H17.6563C17.4328 21.5625 17.25 21.3832 17.25 21.1641V20.2344C17.25 20.0152 17.4328 19.8359 17.6563 19.8359H23.3438C23.5672 19.8359 23.75 20.0152 23.75 20.2344ZM23.3438 22.625H17.6563C17.4328 22.625 17.25 22.8043 17.25 23.0234V23.9531C17.25 24.1723 17.4328 24.3516 17.6563 24.3516H23.3438C23.5672 24.3516 23.75 24.1723 23.75 23.9531V23.0234C23.75 22.8043 23.5672 22.625 23.3438 22.625ZM27 16.3795V27.4062C27 28.2861 26.2721 29 25.375 29H15.625C14.7279 29 14 28.2861 14 27.4062V13.5938C14 12.7139 14.7279 12 15.625 12H22.5346C22.9646 12 23.3776 12.1693 23.6823 12.4682L26.5227 15.2539C26.8273 15.5494 27 15.9578 27 16.3795ZM22.6667 13.7232V16.25H25.243L22.6667 13.7232ZM25.375 27.4062V17.8438H21.8542C21.4039 17.8438 21.0417 17.4885 21.0417 17.0469V13.5938H15.625V27.4062H25.375Z" fill="#6A7797"/>
</svg>
