<svg width="41" height="41" viewBox="0 0 41 41" fill="none" xmlns="http://www.w3.org/2000/svg">
<rect width="41" height="41" rx="10" fill="#D8DDE9"/>
<path d="M29.0391 22.3321L27.375 21.3711C27.543 20.4649 27.543 19.5352 27.375 18.6289L29.0391 17.668C29.2305 17.5586 29.3164 17.3321 29.2539 17.1211C28.8203 15.7305 28.082 14.4727 27.1172 13.4258C26.9687 13.2657 26.7266 13.2266 26.5391 13.336L24.875 14.2969C24.1758 13.6953 23.3711 13.2305 22.5 12.9258V11.0078C22.5 10.7891 22.3476 10.5977 22.1328 10.5508C20.6992 10.2305 19.2305 10.2461 17.8672 10.5508C17.6523 10.5977 17.5 10.7891 17.5 11.0078V12.9297C16.6328 13.2383 15.8281 13.7032 15.125 14.3008L13.4648 13.3399C13.2734 13.2305 13.0352 13.2657 12.8867 13.4297C11.9219 14.4727 11.1836 15.7305 10.75 17.125C10.6836 17.336 10.7734 17.5625 10.9648 17.6719L12.6289 18.6328C12.4609 19.5391 12.4609 20.4688 12.6289 21.375L10.9648 22.336C10.7734 22.4453 10.6875 22.6719 10.75 22.8828C11.1836 24.2735 11.9219 25.5313 12.8867 26.5782C13.0352 26.7383 13.2773 26.7774 13.4648 26.668L15.1289 25.7071C15.8281 26.3086 16.6328 26.7735 17.5039 27.0782V29C17.5039 29.2188 17.6562 29.4102 17.8711 29.4571C19.3047 29.7774 20.7734 29.7618 22.1367 29.4571C22.3516 29.4102 22.5039 29.2188 22.5039 29V27.0782C23.3711 26.7696 24.1758 26.3047 24.8789 25.7071L26.543 26.668C26.7344 26.7774 26.9726 26.7422 27.1211 26.5782C28.0859 25.5352 28.8242 24.2774 29.2578 22.8828C29.3164 22.668 29.2305 22.4414 29.0391 22.3321V22.3321ZM20 23.125C18.2773 23.125 16.875 21.7227 16.875 20C16.875 18.2774 18.2773 16.875 20 16.875C21.7226 16.875 23.125 18.2774 23.125 20C23.125 21.7227 21.7226 23.125 20 23.125Z" fill="#6A7797"/>
</svg>
