<svg width="41" height="41" viewBox="0 0 41 41" fill="none" xmlns="http://www.w3.org/2000/svg">
<rect width="41" height="41" rx="10" fill="#D8DDE9"/>
<path d="M12.45 19.1875C13.7186 19.1875 14.75 18.0104 14.75 16.5625C14.75 15.1146 13.7186 13.9375 12.45 13.9375C11.1814 13.9375 10.15 15.1146 10.15 16.5625C10.15 18.0104 11.1814 19.1875 12.45 19.1875ZM28.55 19.1875C29.8186 19.1875 30.85 18.0104 30.85 16.5625C30.85 15.1146 29.8186 13.9375 28.55 13.9375C27.2814 13.9375 26.25 15.1146 26.25 16.5625C26.25 18.0104 27.2814 19.1875 28.55 19.1875ZM29.7 20.5H27.4C26.7675 20.5 26.1961 20.7912 25.7792 21.2629C27.2275 22.1693 28.2553 23.8059 28.4781 25.75H30.85C31.4861 25.75 32 25.1635 32 24.4375V23.125C32 21.6771 30.9686 20.5 29.7 20.5ZM20.5 20.5C22.7245 20.5 24.525 18.4451 24.525 15.9062C24.525 13.3674 22.7245 11.3125 20.5 11.3125C18.2755 11.3125 16.475 13.3674 16.475 15.9062C16.475 18.4451 18.2755 20.5 20.5 20.5ZM23.26 21.8125H22.9617C22.2142 22.2227 21.3841 22.4688 20.5 22.4688C19.6159 22.4688 18.7894 22.2227 18.0383 21.8125H17.74C15.4544 21.8125 13.6 23.9289 13.6 26.5375V27.7188C13.6 28.8057 14.3727 29.6875 15.325 29.6875H25.675C26.6273 29.6875 27.4 28.8057 27.4 27.7188V26.5375C27.4 23.9289 25.5456 21.8125 23.26 21.8125ZM15.2208 21.2629C14.8039 20.7912 14.2325 20.5 13.6 20.5H11.3C10.0314 20.5 9 21.6771 9 23.125V24.4375C9 25.1635 9.51391 25.75 10.15 25.75H12.5183C12.7447 23.8059 13.7725 22.1693 15.2208 21.2629Z" fill="#6A7797"/>
</svg>
